<?xml version="1.0" encoding="UTF-8"?>
<svg width="90px" height="90px" viewBox="0 0 90 90" version="1.1" xmlns="http://www.w3.org/2000/svg" xmlns:xlink="http://www.w3.org/1999/xlink">
    <!-- Generator: Sketch 47 (45396) - http://www.bohemiancoding.com/sketch -->
    <title>Result/ReasonBox/2-Woman</title>
    <desc>Created with Sketch.</desc>
    <defs>
        <linearGradient x1="0%" y1="50%" x2="100%" y2="50%" id="linearGradient-1">
            <stop stop-color="#F53373" offset="0%"></stop>
            <stop stop-color="#BF51E8" offset="100%"></stop>
        </linearGradient>
    </defs>
    <g id="Symbols" stroke="none" stroke-width="1" fill="none" fill-rule="evenodd">
        <g id="Result/ReasonBox/2-Woman" fill-rule="nonzero" fill="url(#linearGradient-1)">
            <g id="icon-reason-2" transform="translate(43.000000, 22.000000)">
                <path d="M4.82702703,45.9369191 C2.11711712,45.9369191 0,43.7351173 0,41.1098921 L0,7.99818036 C0,5.28827045 2.2018018,3.17115333 4.82702703,3.17115333 L7.87567568,3.17115333 C8.21441441,3.17115333 8.55315315,3.50989207 8.55315315,3.84863081 C8.55315315,4.27205423 8.21441441,4.52610829 7.87567568,4.52610829 L4.82702703,4.52610829 C2.87927928,4.52610829 1.35495495,6.05043261 1.35495495,7.99818036 L1.35495495,17.6522344 L45.645045,17.6522344 L45.645045,7.99818036 C45.645045,6.05043261 44.1207207,4.52610829 42.172973,4.52610829 L39.0396396,4.52610829 C38.7009009,4.52610829 38.3621622,4.18736955 38.3621622,3.84863081 C38.3621622,3.42520739 38.7009009,3.17115333 39.0396396,3.17115333 L42.172973,3.17115333 C44.8828829,3.17115333 47,5.37295514 47,7.99818036 L47,41.1098921 C47,43.819802 44.7981982,45.9369191 42.172973,45.9369191 L4.82702703,45.9369191 Z M1.35495495,41.1945768 C1.35495495,43.1423245 2.87927928,44.6666488 4.82702703,44.6666488 L42.172973,44.6666488 C44.1207207,44.6666488 45.645045,43.1423245 45.645045,41.1945768 L45.645045,19.0918741 L1.35495495,19.0918741 L1.35495495,41.1945768 Z M34.9747748,14.8576398 C32.8576577,14.8576398 31.163964,13.1639461 31.163964,11.046829 C31.163964,9.35313532 32.3495495,7.82881099 34.0432432,7.40538757 L34.2972973,7.32070288 L34.2972973,0.715297477 C34.2972973,0.291874054 34.636036,0.03782 34.9747748,0.03782 C35.3135135,0.03782 35.6522523,0.376558739 35.6522523,0.715297477 L35.6522523,7.32070288 L35.9063063,7.40538757 C37.6,7.82881099 38.7855856,9.35313532 38.7855856,11.046829 C38.7855856,13.1639461 37.0072072,14.8576398 34.9747748,14.8576398 Z M34.9747748,8.67565784 C33.6198198,8.67565784 32.6036036,9.77655874 32.6036036,11.1315137 C32.6036036,12.4864686 33.7045045,13.5026849 34.9747748,13.5026849 C36.3297297,13.5026849 37.4306306,12.401784 37.4306306,11.1315137 C37.4306306,9.86124342 36.245045,8.67565784 34.9747748,8.67565784 Z M12.1099099,14.8576398 C9.99279279,14.8576398 8.2990991,13.1639461 8.2990991,11.046829 C8.2990991,9.35313532 9.48468468,7.82881099 11.1783784,7.40538757 L11.4324324,7.32070288 L11.4324324,0.715297477 C11.4324324,0.291874054 11.7711712,0.03782 12.1099099,0.03782 C12.4486486,0.03782 12.7873874,0.376558739 12.7873874,0.715297477 L12.7873874,7.32070288 L13.0414414,7.40538757 C14.7351351,7.82881099 15.9207207,9.35313532 15.9207207,11.046829 C15.9207207,13.1639461 14.227027,14.8576398 12.1099099,14.8576398 Z M12.1099099,8.67565784 C10.754955,8.67565784 9.65405405,9.77655874 9.65405405,11.1315137 C9.65405405,12.4864686 10.754955,13.5026849 12.1099099,13.5026849 C13.4648649,13.5026849 14.4810811,12.401784 14.4810811,11.1315137 C14.4810811,9.86124342 13.4648649,8.67565784 12.1099099,8.67565784 Z M16.2594595,4.52610829 C15.836036,4.52610829 15.581982,4.18736955 15.581982,3.84863081 C15.581982,3.50989207 15.9207207,3.17115333 16.2594595,3.17115333 L30.8252252,3.17115333 C31.2486486,3.17115333 31.5027027,3.50989207 31.5027027,3.84863081 C31.5027027,4.18736955 31.163964,4.52610829 30.8252252,4.52610829 L16.2594595,4.52610829 Z" id="Shape"></path>
            </g>
        </g>
    </g>
</svg>