<?xml version="1.0" encoding="UTF-8"?>
<svg width="90px" height="90px" viewBox="0 0 90 90" version="1.1" xmlns="http://www.w3.org/2000/svg" xmlns:xlink="http://www.w3.org/1999/xlink">
    <!-- Generator: Sketch 47 (45396) - http://www.bohemiancoding.com/sketch -->
    <title>Result/ReasonBox/3-Woman</title>
    <desc>Created with Sketch.</desc>
    <defs>
        <linearGradient x1="0%" y1="50%" x2="100%" y2="50%" id="linearGradient-1">
            <stop stop-color="#F53373" offset="0%"></stop>
            <stop stop-color="#BF51E8" offset="100%"></stop>
        </linearGradient>
    </defs>
    <g id="Symbols" stroke="none" stroke-width="1" fill="none" fill-rule="evenodd">
        <g id="Result/ReasonBox/3-Woman" fill-rule="nonzero" fill="url(#linearGradient-1)">
            <g id="icon-reason-3" transform="translate(42.000000, 16.000000)">
                <path d="M23.3427774,41.1327274 C17.6988409,41.1327274 13.6178407,38.6865079 13.6178407,38.5959072 C13.4441812,38.5053065 13.2705216,38.2335043 13.2705216,38.0523029 L13.2705216,26.8178134 L12.662713,26.636612 C9.88415972,25.8212055 7.97390431,23.1937846 7.97390431,20.2039608 C7.97390431,16.4893312 10.8392874,13.5901082 14.3124791,13.5901082 C15.0071174,13.5901082 15.7017557,13.6807089 16.4832239,13.952511 L17.0910324,14.1337125 L17.4383516,13.5901082 C18.8276282,11.8686945 20.9115432,10.8720865 23.082288,10.8720865 C25.2530328,10.8720865 27.3369478,11.8686945 28.7262244,13.5901082 L29.0735436,14.0431118 L29.6813522,13.8619103 C30.3759905,13.5901082 31.0706288,13.4995074 31.8520969,13.4995074 C33.5886928,13.4995074 35.151629,14.2243132 36.3672461,15.4927233 C37.5828632,16.7611334 38.2775015,18.4825471 38.2775015,20.2039608 C38.2775015,23.0125832 36.4540759,25.7306048 33.8491821,26.5460113 L33.3282034,26.7272127 L33.3282034,38.0523029 C33.3282034,38.324105 33.1545438,38.5959072 32.9808842,38.6865079 C29.8550117,40.3173209 26.6423095,41.1327274 23.3427774,41.1327274 Z M17.5251814,24.7339969 C17.6988409,24.7339969 17.9593303,24.8245976 18.0461601,25.005799 C18.1329899,25.1870005 18.1329899,25.3682019 18.1329899,25.4588026 C18.1329899,25.6400041 18.0461601,25.7306048 17.8725005,25.8212055 C17.1778622,26.3648098 16.3095643,26.636612 15.2676068,26.8178134 L14.5729685,26.9990149 L14.5729685,37.7805007 L15.0939472,37.9617021 C17.6988409,39.2301122 20.5642241,39.8643173 23.3427774,39.8643173 C26.2081605,39.8643173 28.9867138,39.2301122 31.5916076,37.9617021 L31.7652671,37.9617021 L32.1125863,37.8711014 L32.1125863,24.6433961 C32.1125863,24.2809932 32.3730757,24.0091911 32.7203949,24.0091911 C32.9808842,24.0091911 33.1545438,24.1903925 33.2413736,24.371594 L33.5886928,25.4588026 L34.4569907,24.9151983 C36.1067567,24.0091911 37.0618844,22.1971767 37.0618844,20.2039608 C37.0618844,17.214137 34.7174801,14.7679175 31.8520969,14.7679175 C31.5047778,14.7679175 31.1574586,14.8585183 30.8101394,14.949119 L29.7681819,15.1303204 L30.1155011,16.1269284 C30.3759905,16.9423348 30.5496501,17.7577413 30.5496501,18.7543493 C30.5496501,21.109968 29.5076926,23.2843853 27.7710967,24.8245976 C27.684267,24.9151983 27.5974372,25.005799 27.4237776,25.005799 C27.250118,25.005799 27.0764584,24.9151983 26.9027988,24.7339969 C26.815969,24.6433961 26.815969,24.4621947 26.815969,24.2809932 C26.815969,24.1903925 26.9027988,24.0091911 27.0764584,23.8279896 C28.4657351,22.6501803 29.334033,20.8381658 29.334033,18.84495 C29.334033,15.3115219 26.5554797,12.4122988 23.1691178,12.4122988 C19.7827559,12.4122988 17.0042026,15.3115219 17.0042026,18.84495 C17.0042026,19.2073529 16.7437132,19.479155 16.3963941,19.479155 C16.0490749,19.479155 15.7885855,19.2073529 15.7885855,18.84495 C15.7885855,17.9389428 15.9622451,17.0329356 16.2227345,16.2175291 L16.5700537,15.3115219 L15.5280962,15.1303204 C15.180777,14.949119 14.8334578,14.8585183 14.3993089,14.8585183 C11.5339258,14.8585183 9.18952139,17.3047377 9.18952139,20.2945615 C9.18952139,23.2843853 11.5339258,25.7306048 14.3993089,25.7306048 C15.3544366,25.7306048 16.3963941,25.4588026 17.1778622,24.9151983 C17.4383516,24.7339969 17.5251814,24.7339969 17.5251814,24.7339969 Z" id="Shape"></path>
                <path d="M5.97681911,58.9810694 L5.45584036,58.8904687 C2.50362745,58.8904687 0.159223083,56.4442492 0.159223083,53.3638247 L0.159223083,0.634205048 C0.159223083,0.271802163 0.419712457,0 0.767031622,0 L42.7926507,0 C44.9633954,0 46.0053529,0.906007211 46.4395019,1.54021226 C47.22097,2.44621947 47.4814594,3.80523029 47.3077998,5.52664399 L47.3077998,48.6525872 C47.3077998,49.0149901 47.0473104,49.2867923 46.6999913,49.2867923 L5.45584036,49.2867923 C3.28509557,49.2867923 1.46166995,51.1894074 1.46166995,53.4544254 C1.46166995,55.7194435 3.28509557,57.6220586 5.45584036,57.6220586 L43.4004592,57.6220586 C43.7477784,57.6220586 44.0082677,57.8938608 44.0082677,58.2562637 C44.0082677,58.6186665 43.7477784,58.8904687 43.4004592,58.8904687 L5.97681911,58.8904687 L5.97681911,58.9810694 Z M1.46166995,49.5585944 L2.76411682,48.7431879 C3.54558495,48.1995836 4.58754244,47.9277814 5.54267015,47.9277814 L46.0921827,47.9277814 L46.0921827,5.25484182 C46.1790125,4.89243894 46.3526721,3.26162596 45.4843742,2.26501803 C45.0502252,1.81201442 44.2687571,1.17780937 42.7926507,1.17780937 L1.46166995,1.17780937 L1.46166995,49.5585944 Z" id="Shape"></path>
                <path d="M5.10852119,53.8168283 C4.76120203,53.8168283 4.50071265,53.5450262 4.50071265,53.1826233 C4.50071265,52.8202204 4.76120203,52.5484182 5.10852119,52.5484182 L44.8765656,52.5484182 C45.2238848,52.5484182 45.4843742,52.8202204 45.4843742,53.1826233 C45.4843742,53.5450262 45.2238848,53.8168283 44.8765656,53.8168283 L5.10852119,53.8168283 Z" id="Shape"></path>
            </g>
        </g>
    </g>
</svg>