<?xml version="1.0" encoding="UTF-8"?>
<svg width="90px" height="90px" viewBox="0 0 90 90" version="1.1" xmlns="http://www.w3.org/2000/svg" xmlns:xlink="http://www.w3.org/1999/xlink">
    <!-- Generator: Sketch 47 (45396) - http://www.bohemiancoding.com/sketch -->
    <title>Result/ReasonBox/1-Woman</title>
    <desc>Created with Sketch.</desc>
    <defs>
        <linearGradient x1="0%" y1="50%" x2="629.524367%" y2="50%" id="linearGradient-1">
            <stop stop-color="#F53373" offset="0%"></stop>
            <stop stop-color="#BF51E8" offset="100%"></stop>
        </linearGradient>
        <linearGradient x1="-268.640137%" y1="50%" x2="4407.8125%" y2="50%" id="linearGradient-2">
            <stop stop-color="#F53373" offset="0%"></stop>
            <stop stop-color="#BF51E8" offset="100%"></stop>
        </linearGradient>
        <linearGradient x1="-475.732422%" y1="50%" x2="4293.85986%" y2="50%" id="linearGradient-3">
            <stop stop-color="#F53373" offset="0%"></stop>
            <stop stop-color="#BF51E8" offset="100%"></stop>
        </linearGradient>
        <linearGradient x1="-975.44135%" y1="50%" x2="100%" y2="50%" id="linearGradient-4">
            <stop stop-color="#F53373" offset="0%"></stop>
            <stop stop-color="#BF51E8" offset="100%"></stop>
        </linearGradient>
        <linearGradient x1="-30.3412487%" y1="50%" x2="127.703515%" y2="50%" id="linearGradient-5">
            <stop stop-color="#F53373" offset="0%"></stop>
            <stop stop-color="#BF51E8" offset="100%"></stop>
        </linearGradient>
        <linearGradient x1="-52.6511961%" y1="50%" x2="153.606174%" y2="50%" id="linearGradient-6">
            <stop stop-color="#F53373" offset="0%"></stop>
            <stop stop-color="#BF51E8" offset="100%"></stop>
        </linearGradient>
    </defs>
    <g id="Symbols" stroke="none" stroke-width="1" fill="none" fill-rule="evenodd" fill-opacity="0.9" opacity="0.900000036">
        <g id="Result/ReasonBox/1-Woman" fill-rule="nonzero">
            <g id="icon-reason-1" transform="translate(15.000000, 19.000000)">
                <path d="M11.3,2.8 C11.2,2.4 10.9,2.1 10.4,2.1 C10.4,2.1 10.4,2.1 10.4,2.1 C10,2.2 9.7,2.5 9.7,3 L10.8,16.8 C10.8,16.9 11,17.6 10.6,18.5 C10.1,19.6 9,20.6 7.4,21.1 C7.2,21.2 7,21.3 6.9,21.4 C6.8,21.6 6.8,21.8 6.9,22.1 C6.9,22.1 6.9,22.1 6.9,22.1 C6.9,22.1 6.9,22.2 6.9,22.2 L6.9,49 C6.9,49.3 6.7,49.5 6.3,49.5 C6,49.5 5.8,49.3 5.8,49 L5.8,22.2 C5.8,22.2 5.8,22.1 5.8,22.1 C5.8,22.1 5.8,22.1 5.8,22.1 C5.9,21.9 5.8,21.7 5.7,21.5 C5.6,21.3 5.4,21.2 5.3,21.1 C2.9,20.2 1.6,18.6 1.9,16.6 L3.1,3 C3.1,2.5 2.8,2.2 2.3,2.2 C1.8,2.2 1.5,2.5 1.5,2.9 L0.4,16.4 C0.2,17.4 0.1,20.6 4.3,22.4 L4.3,49 C4.3,50.1 5.2,51.1 6.3,51.1 C6.9,51.1 7.5,50.9 7.9,50.4 C8.2,50 8.4,49.5 8.4,49 L8.4,22.3 C13.3,20.3 12.4,16.4 12.4,16.4 L11.3,2.8 Z" id="Shape" fill="url(#linearGradient-1)"></path>
                <path d="M4.9,16.1 C5.3,16.1 5.7,15.7 5.7,15.3 L5.7,1.2 C5.7,0.8 5.3,0.5 4.9,0.5 C4.5,0.5 4.1,0.9 4.1,1.2 L4.1,15.3 C4.1,15.8 4.5,16.1 4.9,16.1 Z" id="Shape" fill="url(#linearGradient-2)"></path>
                <path d="M7.9,16.1 C8.3,16.1 8.7,15.7 8.7,15.3 L8.7,1.2 C8.7,0.8 8.3,0.5 7.9,0.5 C7.5,0.5 7.1,0.9 7.1,1.2 L7.1,15.3 C7.1,15.8 7.5,16.1 7.9,16.1 Z" id="Shape" fill="url(#linearGradient-3)"></path>
                <path d="M74.5,2.9 C74.5,1.8 74.2,1.3 74,0.9 C73.7,0.6 73.2,0.4 72.8,0.4 C72.8,0.4 72.8,0.4 72.8,0.4 C72.7,0.4 72.6,0.4 72.5,0.4 C71,0.4 70.8,1.4 69.2,9.5 L69,10.5 C69,10.6 66.7,20.4 67.9,24.5 C68.3,25.6 69.8,27.5 70.4,28.1 L70.4,48.9 C70.4,50 71.3,51 72.4,51 C73,51 73.6,50.7 74,50.3 C74.4,49.9 74.5,49.4 74.5,48.9 L74.5,3.7 C74.5,3.6 74.5,3.5 74.4,3.4 C74.4,3.2 74.5,3 74.5,2.9 Z M71.7,27.6 C71.7,27.5 71.6,27.3 71.5,27.2 C71.4,27 71.2,26.8 70.9,26.5 C70.3,25.7 69.4,24.6 69.2,24 C68.6,21.9 68.9,17.3 70.2,11.1 C70.3,10.9 70.3,10.8 70.3,10.8 L70.5,9.8 C71.2,6.4 72,2.1 72.4,1.9 L72.6,1.9 C72.6,1.9 72.7,1.9 72.7,2 C72.8,2.1 72.9,2.3 72.9,2.9 C72.9,3.1 73,3.2 73,3.3 C72.9,3.4 72.9,3.5 72.9,3.7 L72.9,48.9 C72.9,49.2 72.7,49.4 72.4,49.4 C72.1,49.4 71.9,49.2 71.9,48.9 L71.9,28 C71.7,27.8 71.7,27.7 71.7,27.6 Z" id="Shape" fill="url(#linearGradient-4)"></path>
                <path d="M39.2,1.6 C25.9,1.6 15.1,12.4 15.1,25.7 C15.1,39 25.9,49.7 39.2,49.7 C52.5,49.7 63.2,38.9 63.2,25.7 C63.2,12.4 52.5,1.6 39.2,1.6 Z M39.2,48.3 C26.8,48.3 16.6,38.2 16.6,25.8 C16.6,13.4 26.7,3.2 39.2,3.2 C51.6,3.2 61.7,13.3 61.7,25.8 C61.7,38.1 51.6,48.3 39.2,48.3 Z" id="Shape" fill="url(#linearGradient-5)"></path>
                <path d="M39.2,7.1 C29,7.1 20.6,15.4 20.6,25.7 C20.6,35.9 28.9,44.2 39.2,44.2 C49.5,44.2 57.7,35.9 57.7,25.7 C57.7,15.5 49.4,7.1 39.2,7.1 Z M39.2,42.6 C29.8,42.6 22.1,35 22.1,25.7 C22.1,16.3 29.7,8.6 39.2,8.6 C48.5,8.6 56.1,16.2 56.1,25.7 C56.1,35 48.5,42.6 39.2,42.6 Z" id="Shape" fill="url(#linearGradient-6)"></path>
            </g>
        </g>
    </g>
</svg>